# xmcd CD database file
#
# Track frame offsets:
#	150
#	42171
#	89490
#	122767
#	147624
#	213543
#	240290
#	297814
#
# Disc length: 4219 seconds
#
# Revision: 0
# Processed by: cddbd v1.5.2PL0 Copyright (c) Steve Scherf et al.
# Submitted via: CDex 1.70beta2
#
DISCID=75107908
DTITLE=Tommy Flanagan - Sunset and The Mockingbird: The Birthday Concert
DYEAR=1998
DGENRE=Jazz
TTITLE0=Bird Song
TTITLE1=With Malice Toward None
TTITLE2=Let's
TTITLE3=I Waited for You
TTITLE4=Tin Tin Deo
TTITLE5=Sunset and the Mockingbird
TTITLE6=The Balanced Scales/The Cupbearers
TTITLE7=Goodnight My love
EXTD=YEAR: 1998
EXTT0=
EXTT1=
EXTT2=
EXTT3=
EXTT4=
EXTT5=
EXTT6=
EXTT7=
PLAYORDER=
